*************Um.Pistoleiro.Chamado.Papaco.VHSRIP.1986.Xvid*************

Release name                     : Um.Pistoleiro.Chamado.Papaco.VHSRIP.1986.Xvid
IMDB                             : http://www.imdb.com/title/tt0459011/
Format                           : AVI
Format/Info                      : Audio Video Interleave
File size                        : 599 MiB
Duration                         : 1h 10mn
Overall bit rate                 : 1 191 Kbps
Writing application              : FairUse Wizard - http://fairusewizard.com
Writing library                  : The best and REALLY easy backup tool

Video
ID                               : 0
Format                           : MPEG-4 Visual
Format profile                   : Advanced Simple@L5
Format settings, BVOP            : Yes
Format settings, QPel            : No
Format settings, GMC             : No warppoints
Format settings, Matrix          : Default (H.263)
Muxing mode                      : Packed bitstream
Codec ID                         : XVID
Codec ID/Hint                    : XviD
Duration                         : 1h 10mn
Bit rate                         : 1 083 Kbps
Width                            : 512 pixels
Height                           : 384 pixels
Display aspect ratio             : 4:3
Frame rate                       : 29.970 fps
Color space                      : YUV
Chroma subsampling               : 4:2:0
Bit depth                        : 8 bits
Scan type                        : Progressive
Compression mode                 : Lossy
Bits/(Pixel*Frame)               : 0.184
Stream size                      : 545 MiB (91%)
Writing library                  : XviD 1.1.0 (UTC 2005-11-22)

Audio
ID                               : 1
Format                           : MPEG Audio
Format version                   : Version 1
Format profile                   : Layer 3
Mode                             : Joint stereo
Codec ID                         : 55
Codec ID/Hint                    : MP3
Duration                         : 1h 10mn
Bit rate mode                    : Constant
Bit rate                         : 96.0 Kbps
Channel(s)                       : 2 channels
Sampling rate                    : 48.0 KHz
Compression mode                 : Lossy
Stream size                      : 48.3 MiB (8%)
Alignment                        : Aligned on interleaves
Interleave, duration             : 33 ms (1.00 video frame)
Interleave, preload duration     : 504 ms
Writing library                  : LAME3.97b
Encoding settings                : -m j -V 4 -q 2 -lowpass 16 -b 96

  
http://bayimg.com/fAHfoaAdK  
http://bayimg.com/gAHfaAADk  
http://bayimg.com/gAhfbAaDk  
http://bayimg.com/GAHFcAADk		